<svg xmlns="http://www.w3.org/2000/svg" xmlns:xlink="http://www.w3.org/1999/xlink" width="1024" viewBox="0 0 768 767.999994" height="1024" preserveAspectRatio="xMidYMid meet"><path fill="rgb(97.24884%, 44.309998%, 46.669006%)" d="M 411.335938 145.390625 C 470.136719 108.707031 503.515625 168.234375 503.515625 168.234375 C 632.847656 165.78125 595.046875 268.394531 595.046875 268.394531 C 690.914062 342.660156 606.8125 407.21875 606.8125 407.21875 C 679.722656 474.050781 606.8125 528.734375 606.8125 528.734375 C 604.789062 629.996094 509.597656 613.792969 509.597656 613.792969 C 466.34375 651.804688 425.882812 637.257812 406.625 617.855469 C 387.179688 598.261719 388.070312 568.136719 388.070312 568.136719 L 388.070312 199.527344 C 388.070312 199.527344 376.84375 166.898438 411.335938 145.390625 " fill-opacity="1" fill-rule="nonzero"></path><path fill="rgb(16.859436%, 21.569824%, 20.779419%)" d="M 416.859375 154.839844 C 436.273438 143.1875 456.324219 140.582031 475.546875 153.597656 C 483.371094 158.882812 489.71875 166.121094 494.066406 173.765625 C 495.953125 177.074219 499.710938 179.230469 503.515625 179.1875 C 536.234375 178.792969 578.144531 184.539062 587.558594 221.640625 C 591.269531 236.253906 589.667969 251.269531 584.476562 265.480469 C 583.289062 268.757812 584.507812 273.929688 587.296875 276.136719 C 614.976562 298.03125 639.195312 327.953125 625.65625 364.539062 C 620.714844 377.917969 610.328125 390.75 599.074219 399.472656 C 594.441406 403.066406 595.128906 411.246094 599.074219 414.957031 C 617.15625 431.988281 632.695312 453.910156 626.9375 479.882812 C 623.8125 493.992188 614.9375 506.253906 604.683594 516.113281 C 603.378906 517.375 602.011719 518.574219 600.625 519.742188 C 597.15625 522.675781 604.792969 515.265625 599.074219 520.988281 C 594.730469 525.335938 595.800781 532.285156 595.40625 537.890625 C 594.964844 544.105469 593.75 550.191406 592.171875 556.207031 C 588.125 571.710938 579.023438 585.078125 565.316406 593.496094 C 555.222656 599.699219 543.054688 602.636719 531.738281 603.507812 C 527.304688 603.855469 522.839844 603.859375 518.398438 603.675781 C 516.4375 603.589844 508.335938 602.636719 512.992188 603.308594 C 502.835938 601.851562 496.046875 611.144531 488.011719 616.222656 C 476.246094 623.664062 462.957031 627.128906 449.113281 626.402344 C 427.164062 625.253906 408.855469 609.308594 402.25 588.980469 C 397.953125 575.765625 399.023438 561.570312 399.023438 547.878906 C 399.023438 521.683594 399.023438 495.5 399.023438 469.320312 C 399.023438 400.675781 399.023438 332.027344 399.023438 263.386719 C 399.023438 244.070312 399.023438 224.761719 399.023438 205.449219 C 399.023438 201.941406 399.160156 198.683594 398.238281 195.253906 C 393.957031 179.410156 403.066406 163.9375 416.859375 154.839844 C 428.59375 147.109375 417.632812 128.132812 405.808594 135.933594 C 387.332031 148.109375 375 166.03125 375.402344 188.6875 C 375.488281 193.203125 376.132812 198.015625 377.488281 202.34375 C 376.164062 198.113281 377.121094 199.925781 377.121094 202.34375 C 377.121094 220.46875 377.121094 238.589844 377.121094 256.710938 C 377.121094 324.941406 377.121094 393.164062 377.121094 461.386719 C 377.121094 496.613281 377.121094 531.835938 377.121094 567.054688 C 377.121094 592.371094 386.792969 617.535156 407.496094 632.941406 C 442.84375 659.230469 485.921875 648.246094 517.347656 621.535156 C 513.789062 622.476562 510.234375 623.410156 506.683594 624.351562 C 524.886719 627.378906 544.585938 625.617188 561.863281 619.242188 C 600.582031 604.957031 616.59375 567.878906 617.765625 528.734375 C 615.957031 531.882812 614.144531 535.039062 612.339844 538.1875 C 626.554688 527.414062 638.136719 512.527344 644.71875 495.953125 C 659.195312 459.460938 641.359375 424.710938 614.558594 399.472656 C 614.558594 404.636719 614.558594 409.800781 614.558594 414.957031 C 630.015625 402.984375 641.816406 385.0625 648.0625 366.730469 C 662.5 324.433594 634.539062 285.765625 602.785156 260.652344 C 603.722656 264.203125 604.660156 267.75 605.597656 271.308594 C 612.191406 253.234375 613.070312 231.597656 607.972656 213.148438 C 595.375 167.574219 544.789062 156.785156 503.515625 157.289062 C 506.671875 159.09375 509.824219 160.898438 512.972656 162.710938 C 506.015625 150.472656 495.136719 140.039062 483.359375 132.554688 C 458.800781 116.957031 429.675781 121.609375 405.808594 135.933594 C 393.714844 143.1875 404.71875 162.128906 416.859375 154.839844 " fill-opacity="1" fill-rule="nonzero"></path><path fill="rgb(16.859436%, 21.569824%, 20.779419%)" d="M 393.542969 309.25 C 393.894531 300.070312 397.507812 290.457031 402.332031 282.558594 C 415.578125 260.898438 441.988281 257.980469 465.039062 260.800781 C 472.042969 261.652344 471.953125 250.695312 465.039062 249.847656 C 438.265625 246.570312 411.300781 251.707031 394.625 274.425781 C 387.519531 284.109375 383.046875 297.203125 382.59375 309.25 C 382.328125 316.3125 393.289062 316.289062 393.542969 309.25 " fill-opacity="1" fill-rule="nonzero"></path><path fill="rgb(16.859436%, 21.569824%, 20.779419%)" d="M 379.050781 510.894531 C 386.542969 523.535156 397.773438 534.332031 409.894531 542.445312 C 435.558594 559.621094 466.03125 556.988281 492.230469 542.558594 C 498.421875 539.15625 492.898438 529.699219 486.707031 533.109375 C 462.515625 546.429688 436.984375 547.417969 413.75 531.867188 C 403.835938 525.234375 394.613281 515.675781 388.507812 505.363281 C 384.910156 499.296875 375.445312 504.800781 379.050781 510.894531 " fill-opacity="1" fill-rule="nonzero"></path><path fill="rgb(16.859436%, 21.569824%, 20.779419%)" d="M 527.644531 356.953125 C 536.054688 362.449219 543.136719 370.527344 548.140625 379.148438 C 562.546875 403.941406 545.394531 427.859375 526.535156 444.105469 C 521.179688 448.726562 528.96875 456.429688 534.28125 451.847656 C 555.289062 433.746094 572.039062 408.351562 560.734375 380.195312 C 555.46875 367.070312 544.992188 355.226562 533.171875 347.496094 C 527.246094 343.613281 521.769531 353.097656 527.644531 356.953125 " fill-opacity="1" fill-rule="nonzero"></path><path fill="rgb(16.859436%, 21.569824%, 20.779419%)" d="M 502.667969 399.144531 C 503.691406 398.976562 502.378906 399.1875 500.96875 399.308594 C 498.550781 399.53125 496.113281 399.589844 493.6875 399.578125 C 485.828125 399.550781 478.132812 398.125 470.773438 395.378906 C 442.792969 384.925781 439.90625 352.269531 442.632812 326.667969 C 443.378906 319.648438 432.425781 319.714844 431.679688 326.667969 C 428.550781 356.0625 433.566406 389.179688 462.585938 403.660156 C 475.472656 410.097656 491.375 412 505.582031 409.699219 C 512.539062 408.574219 509.570312 398.023438 502.667969 399.144531 " fill-opacity="1" fill-rule="nonzero"></path><path fill="rgb(16.859436%, 21.569824%, 20.779419%)" d="M 456.664062 218.683594 C 462.886719 214.222656 470.273438 211.414062 477.773438 210.128906 C 498.671875 206.554688 509.992188 226.625 515.390625 243.519531 C 517.539062 250.222656 528.109375 247.355469 525.949219 240.605469 C 519.269531 219.703125 506.597656 199.570312 482.519531 198.902344 C 471.78125 198.609375 459.84375 202.984375 451.144531 209.226562 C 445.457031 213.300781 450.921875 222.808594 456.664062 218.683594 " fill-opacity="1" fill-rule="nonzero"></path><path fill="rgb(16.859436%, 21.569824%, 20.779419%)" d="M 611.546875 525.972656 C 602.734375 507.621094 588.9375 490.402344 572.96875 477.90625 C 542.179688 453.820312 505.792969 457.507812 475.25 480.15625 C 469.648438 484.3125 475.089844 493.824219 480.773438 489.613281 C 496.121094 478.230469 513.144531 470.277344 532.605469 471.863281 C 547.113281 473.039062 560.480469 481.199219 571.167969 490.570312 C 583.859375 501.695312 594.769531 516.242188 602.085938 531.496094 C 605.140625 537.859375 614.585938 532.304688 611.546875 525.972656 " fill-opacity="1" fill-rule="nonzero"></path><path fill="rgb(16.859436%, 21.569824%, 20.779419%)" d="M 596.5 263.113281 C 557.566406 251.054688 514 262.957031 498.847656 303.367188 C 496.359375 310 506.941406 312.832031 509.398438 306.28125 C 522.4375 271.519531 560.925781 263.550781 593.59375 273.671875 C 600.347656 275.765625 603.222656 265.195312 596.5 263.113281 " fill-opacity="1" fill-rule="nonzero"></path><path fill="rgb(97.24884%, 44.309998%, 46.669006%)" d="M 356.507812 145.390625 C 297.695312 108.707031 264.328125 168.234375 264.328125 168.234375 C 134.996094 165.78125 172.796875 268.394531 172.796875 268.394531 C 76.925781 342.652344 161.027344 407.21875 161.027344 407.21875 C 88.113281 474.050781 161.027344 528.730469 161.027344 528.730469 C 163.054688 629.996094 258.242188 613.792969 258.242188 613.792969 C 301.5 651.804688 341.960938 637.257812 361.214844 617.855469 C 380.664062 598.261719 379.761719 568.136719 379.761719 568.136719 L 379.761719 199.527344 C 379.761719 199.527344 391 166.898438 356.507812 145.390625 " fill-opacity="1" fill-rule="nonzero"></path><path fill="rgb(16.859436%, 21.569824%, 20.779419%)" d="M 362.035156 135.933594 C 337.5625 121.242188 309.679688 117.59375 284.484375 132.554688 C 272.652344 139.582031 261.703125 150.695312 254.871094 162.707031 C 258.019531 160.898438 261.179688 159.09375 264.328125 157.28125 C 222.585938 156.78125 174.675781 167.34375 160.273438 211.816406 C 154.296875 230.246094 155.601562 253.113281 162.238281 271.308594 C 163.179688 267.75 164.121094 264.203125 165.058594 260.652344 C 132.539062 286.375 106.394531 323.863281 119.773438 366.730469 C 125.488281 385.011719 138.070312 403.175781 153.285156 414.957031 C 153.285156 409.800781 153.285156 404.636719 153.285156 399.472656 C 127.027344 424.199219 109.265625 457.941406 122.339844 493.984375 C 128.65625 511.355469 140.800781 527.035156 155.496094 538.1875 C 153.699219 535.039062 151.886719 531.882812 150.074219 528.730469 C 151.25 567.996094 166.835938 603.019531 204.476562 618.652344 C 221.824219 625.851562 242.65625 627.429688 261.15625 624.351562 C 257.605469 623.410156 254.054688 622.476562 250.503906 621.535156 C 271.335938 639.242188 296.394531 651.425781 324.308594 647.660156 C 345.683594 644.785156 364.171875 633.226562 376.832031 615.945312 C 389.34375 598.863281 390.714844 577.5625 390.714844 557.257812 C 390.714844 499.816406 390.714844 442.375 390.714844 384.925781 C 390.714844 333.40625 390.714844 281.882812 390.714844 230.359375 C 390.714844 220.171875 390.714844 209.988281 390.714844 199.800781 C 390.714844 204.074219 390.734375 201.304688 391.296875 198.445312 C 392.40625 192.847656 392.6875 187.171875 392.144531 181.5 C 390.246094 161.710938 378.230469 146.605469 362.035156 135.933594 C 350.199219 128.132812 339.246094 147.109375 350.976562 154.839844 C 365.179688 164.203125 373.804688 179.695312 369.445312 195.835938 C 368.492188 199.355469 368.816406 203.109375 368.816406 206.722656 C 368.816406 227.921875 368.816406 249.125 368.816406 270.316406 C 368.816406 339.238281 368.816406 408.15625 368.816406 477.074219 C 368.816406 502.03125 368.816406 526.984375 368.816406 551.941406 C 368.816406 568.582031 369.167969 584.167969 361.160156 599.628906 C 351.09375 619.0625 328.488281 627.808594 307.632812 626.28125 C 293.550781 625.253906 280.011719 617.367188 269.226562 608.800781 C 264.511719 605.058594 261.6875 602.179688 255.304688 603.242188 C 252.976562 603.625 258.648438 602.832031 255.890625 603.160156 C 235.246094 605.605469 213.945312 602.074219 196.792969 589.671875 C 183.621094 580.140625 177.132812 564.097656 173.921875 548.769531 C 171.929688 539.21875 174.980469 525.667969 166.507812 519.242188 C 170.609375 522.347656 166.988281 519.550781 166.097656 518.792969 C 164.476562 517.394531 162.925781 515.910156 161.410156 514.40625 C 151.132812 504.277344 143.5625 491.863281 140.425781 477.710938 C 134.953125 453.019531 151.960938 430.789062 168.769531 414.957031 C 172.714844 411.246094 173.398438 403.066406 168.769531 399.472656 C 157.347656 390.621094 147.523438 377.941406 142.1875 364.539062 C 127.808594 328.421875 153.507812 297.519531 180.539062 276.136719 C 183.328125 273.929688 184.554688 268.757812 183.359375 265.480469 C 178.253906 251.472656 176.941406 237.355469 179.976562 222.96875 C 188.03125 184.816406 231.609375 178.792969 264.328125 179.179688 C 268.132812 179.230469 271.898438 177.074219 273.785156 173.765625 C 278.195312 166.003906 284.527344 159.167969 292.296875 153.597656 C 311.054688 140.125 332.027344 143.464844 350.976562 154.839844 C 363.117188 162.128906 374.128906 143.1875 362.035156 135.933594 " fill-opacity="1" fill-rule="nonzero"></path><path fill="rgb(16.859436%, 21.569824%, 20.779419%)" d="M 385.234375 309.25 C 384.777344 296.992188 380.132812 284.4375 373.21875 274.425781 C 357.324219 251.398438 328.902344 246.65625 302.804688 249.847656 C 295.890625 250.695312 295.808594 261.652344 302.804688 260.800781 C 326.429688 257.90625 351.589844 261.132812 365.507812 282.558594 C 370.492188 290.226562 373.949219 300.207031 374.289062 309.25 C 374.554688 316.289062 385.503906 316.3125 385.234375 309.25 " fill-opacity="1" fill-rule="nonzero"></path><path fill="rgb(16.859436%, 21.569824%, 20.779419%)" d="M 379.335938 505.363281 C 373.492188 515.230469 364.894531 523.957031 355.722656 530.722656 C 332.707031 547.714844 305.605469 546.578125 281.132812 533.109375 C 274.945312 529.695312 269.421875 539.15625 275.609375 542.558594 C 301.664062 556.90625 330.253906 559.109375 356.230469 543.535156 C 369.15625 535.792969 381.078125 523.910156 388.785156 510.894531 C 392.398438 504.800781 382.929688 499.296875 379.335938 505.363281 " fill-opacity="1" fill-rule="nonzero"></path><path fill="rgb(16.859436%, 21.569824%, 20.779419%)" d="M 234.664062 347.496094 C 223.128906 355.042969 213.277344 366.328125 207.660156 378.882812 C 195.019531 407.152344 212.386719 433.605469 233.558594 451.847656 C 238.875 456.429688 246.664062 448.726562 241.300781 444.105469 C 222.5625 427.953125 206.53125 405.75 218.78125 380.855469 C 223.402344 371.472656 231.421875 362.691406 240.195312 356.953125 C 246.074219 353.097656 240.597656 343.613281 234.664062 347.496094 " fill-opacity="1" fill-rule="nonzero"></path><path fill="rgb(16.859436%, 21.569824%, 20.779419%)" d="M 262.261719 409.699219 C 276.257812 411.964844 290.996094 409.878906 303.941406 404.277344 C 334.199219 391.179688 339.269531 355.820312 336.164062 326.667969 C 335.417969 319.714844 324.457031 319.648438 325.210938 326.667969 C 328.007812 352.890625 325.007812 382.453125 298.414062 394.820312 C 291.25 398.152344 282.992188 399.335938 275.15625 399.5625 C 272.609375 399.636719 270.054688 399.546875 267.511719 399.359375 C 266.207031 399.265625 263.863281 398.925781 265.179688 399.144531 C 258.273438 398.023438 255.308594 408.574219 262.261719 409.699219 " fill-opacity="1" fill-rule="nonzero"></path><path fill="rgb(16.859436%, 21.569824%, 20.779419%)" d="M 316.695312 209.226562 C 307.75 202.808594 296.273438 199.082031 285.320312 198.902344 C 261.414062 198.519531 248.308594 220.539062 241.886719 240.605469 C 239.734375 247.355469 250.304688 250.222656 252.453125 243.519531 C 258.050781 226.003906 269.007812 207.285156 290.0625 210.128906 C 297.496094 211.136719 305.066406 214.304688 311.171875 218.683594 C 316.925781 222.808594 322.386719 213.300781 316.695312 209.226562 " fill-opacity="1" fill-rule="nonzero"></path><path fill="rgb(16.859436%, 21.569824%, 20.779419%)" d="M 165.757812 531.496094 C 173.136719 516.113281 184.097656 501.992188 196.675781 490.570312 C 207.390625 480.847656 220.734375 473.542969 235.238281 471.863281 C 254.382812 469.628906 272.125 478.535156 287.0625 489.613281 C 292.742188 493.824219 298.195312 484.3125 292.585938 480.15625 C 262.050781 457.507812 225.664062 453.820312 194.882812 477.898438 C 178.90625 490.402344 165.101562 507.617188 156.300781 525.972656 C 153.265625 532.304688 162.703125 537.859375 165.757812 531.496094 " fill-opacity="1" fill-rule="nonzero"></path><path fill="rgb(16.859436%, 21.569824%, 20.779419%)" d="M 174.257812 273.671875 C 206.917969 263.550781 245.402344 271.519531 258.4375 306.28125 C 260.902344 312.832031 271.488281 310 269.007812 303.367188 C 253.84375 262.957031 210.269531 251.054688 171.34375 263.113281 C 164.621094 265.195312 167.492188 275.765625 174.257812 273.671875 " fill-opacity="1" fill-rule="nonzero"></path></svg>